# xmcd
#
# Track frame offsets:
#	150
#	19774
#	34616
#	44625
#	67139
#	75828
#	91565
#	105942
#	117789
#	140474
#	154348
#	164877
#	180209
#	198843
#	212940
#	235352
#	255029
#	270881
#	288741
#	309803
#	330847
#
# Disc length: 4687 seconds
#
# Revision: 0
# Processed by: cddbd v1.5.1PL2 Copyright (c) Steve Scherf et al.
# Submitted via: EasyCDDAExtractor 9.0.0.1
#
DISCID=0a124d15
DTITLE=Mississippi Fred McDowell - Mississippi Fred McDowell - Vol 1 (1959 - 1
DTITLE=969)
DYEAR=1959
DGENRE=Blues
TTITLE0=Going Down The River
TTITLE1=Daeth Comes A-Creepin' In My Room
TTITLE2=Wish I Was In Heaven Sitting Down
TTITLE3=What's The Matter
TTITLE4=Lord Have Mercy
TTITLE5=Done Left Here
TTITLE6=All The Way From East St Louis
TTITLE7=Shake 'Em On Down
TTITLE8=Left My Baby Standing
TTITLE9=On The Frisco Line
TTITLE10=Trouble Everywhere I Go
TTITLE11=Waiting For My Baby
TTITLE12=I'm In Jail Again
TTITLE13=Going Down South, Carry My Whip
TTITLE14=The Sun Rose This Morning
TTITLE15=I Walked All The Way From East St Louis
TTITLE16=Look Way Down That Lonesome Road
TTITLE17=Poor Boy, Long Way From Home
TTITLE18=My Baby Has Eyes Like An Eagle
TTITLE19=Shake 'Em On Down (electric - London 1969)
TTITLE20=Waves Of Water (electric - London 1969)
EXTD=
EXTT0=
EXTT1=
EXTT2=
EXTT3=
EXTT4=
EXTT5=
EXTT6=
EXTT7=
EXTT8=
EXTT9=
EXTT10=
EXTT11=
EXTT12=
EXTT13=
EXTT14=
EXTT15=
EXTT16=
EXTT17=
EXTT18=
EXTT19=
EXTT20=
PLAYORDER=
